<?xml version="1.0" encoding="UTF-8"?>
<svg id="Camada_2" data-name="Camada 2" xmlns="http://www.w3.org/2000/svg" viewBox="0 0 607.8 642">
  <defs>
    <style>
      .cls-1 {
        fill: #152340;
      }
    </style>
  </defs>
  <g id="text">
    <g>
      <g>
        <path class="cls-1" d="M507.98,359.18c-18.11,15.27-38.59,25.76-61.86,31.18-.32,1.46-.88,2.88-.91,4.3-1.34,56.09-22.13,104.79-56.99,147.85-8.54,10.55-18.36,20.22-28.5,29.27-12.02,10.73-26.29,17.77-42.17,21.36-12.49,2.82-24.6,1.68-36.51-2.69-13.97-5.11-26.44-12.82-37.11-23.05-41.5-39.82-68.84-87.5-78.84-144.51-1.35-7.68-1.4-15.59-1.93-23.41-.19-2.72-.03-5.47-.03-8.65-24.12-4.89-44.43-16.21-63.83-32.21.16,14.93,1.17,28.37,3.73,41.66,7.08,36.65,21.68,70.39,40.03,102.64,11.37,19.98,24.32,38.86,40.8,56.25-79.63-47.74-126.86-172.82-106.16-257.61,26.04,39.67,60.9,64.99,108.76,70.74.19,3.23.5,5.91.49,8.6-.33,61.82,23.39,114.54,61.39,161.76,7.46,9.27,16.18,17.42,26.41,23.72,20.65,12.71,41.14,12.19,61.26-1.14,11.93-7.9,21.7-18.18,30.3-29.5,28.08-36.93,46.21-78.15,52.39-124.3,1.24-9.24,1.31-18.65,1.81-27.99.17-3.25.03-6.53.03-10.79,48.31-5.38,83.84-30.33,109.57-71.57,3.38,7.84,3.84,15.13,4.24,22.23,4.29,76.56-18.64,143.97-68.77,202-10.95,12.67-24.11,22.96-38.6,31.94,5.53-6.82,11.32-13.45,16.53-20.52,5.39-7.32,10.44-14.91,15.19-22.65,4.76-7.74,9.16-15.72,13.37-23.78,4.32-8.29,8.43-16.7,12.21-25.24,3.67-8.31,7.09-16.76,10.09-25.34,3-8.58,5.72-17.29,7.85-26.11,2.13-8.82,3.75-17.81,4.93-26.82,1.16-8.89,1.49-17.88,2.18-26.83-.45-.27-.9-.53-1.35-.8Z"/>
        <path class="cls-1" d="M491.55,143.27c24.55,25.77,36.77,56.3,34.84,92.03-1.4,25.97-10.29,49.41-26.77,69.58-39.15,47.91-112.78,53.91-159.43,13.24-.56-.49-1.17-.94-2.33-1.87-.84,2.26-1.61,4.24-2.3,6.25-5.35,15.57-11.03,30.95-22.17,43.6-8,9.08-9.56,9.15-17.41,0-8.69-10.11-14.65-21.75-19.08-34.23-1.68-4.74-3.15-9.55-4.97-15.09-31.77,25.56-67.07,34.68-106.46,24.34-28.69-7.53-50.69-24.41-66.41-49.48-28.74-45.82-21.3-117.58,14.78-144.13,4.59,6.26,9.18,12.53,14.15,19.31-.67,1.16-1.62,2.87-2.64,4.54-17.79,29.21-20.9,60.03-7.51,91.39,13.62,31.91,39.04,49.51,73.51,51.31,34.28,1.79,60.23-13.89,77.91-43.23,1.9-3.15,3.54-6.46,6.2-11.35,6.44,18.73,16.88,33.08,28.99,47.63,13.18-13.67,21.95-29.26,28.86-48.16,2.11,3.86,3.36,6.14,4.6,8.41,12.54,22.84,30.88,38.59,56.46,44.75,42.22,10.17,86.51-15.85,99.25-58.2,7.61-25.3,5.73-49.9-6.72-73.49-.94-1.77-1.26-4.25-.94-6.24,1.65-10.15,3.62-20.24,5.58-30.94Z"/>
        <path class="cls-1" d="M304.91,193.45c.62-.76,1.35-1.48,1.88-2.32,27.79-43.62,67.76-69.68,117.43-82.14,13.69-3.43,27.26-7.57,40.52-12.39,7.99-2.9,15.49-7.37,22.82-11.79,13.64-8.24,23.25-20.03,28.84-35.02.44-1.18.89-2.37,1.4-3.52,1.29-2.91,1.69-6.89,5.78-7.17,4.73-.32,6.32,3.72,7.76,7.15,4.41,10.5,4.91,21.63,4.44,32.78-.87,20.7-5.61,40.48-15.07,59.01-.57,1.11-1.3,2.14-2.4,3.92-5.09-4.46-9.93-8.7-15.13-13.25,11.19-19.15,19.44-39.25,22.63-62.86-1.3,1.6-1.72,1.93-1.9,2.36-8.01,19.87-22.69,33.69-40.43,44.78-15.1,9.44-31.85,15.21-48.21,21.92-13.77,5.65-27.63,11.26-40.84,18.08-41.73,21.55-67.98,56.2-82.79,100.15-1.13,3.35-1.98,6.8-3.22,10.1-.75,2-2.01,3.8-3.9,7.28-2.16-3.97-3.77-6.36-4.82-8.97-3.66-9.14-6.81-18.5-10.7-27.53-17.86-41.42-47.79-70.8-89.34-88.2-14.44-6.05-29.28-11.13-43.7-17.21-10.21-4.3-20.4-8.92-29.95-14.49-19.77-11.53-31.24-23.98-42.48-44.09-1.4,9.98,6.81,33.46,20.62,58.54-2.35,2.2-4.94,4.49-7.36,6.93-2.29,2.32-4.41,4.81-7.39,8.08-2.37-4.88-4.32-8.59-6.01-12.41-10.16-22.97-13.95-46.92-9.92-71.78.95-5.84,3.15-11.72,5.97-16.95,2.81-5.22,6.9-4.61,9.39.74,1.06,2.28,1.86,4.7,2.7,7.08,4.7,13.33,13.21,23.71,24.62,31.87,17.17,12.28,36.72,18.9,56.9,23.98,16.41,4.13,32.89,7.91,48.45,14.86,33.46,14.92,60.36,37.42,79.9,68.53.67,1.06,1.34,2.13,2.11,3.13.28.36.83.5,1.4.83Z"/>
        <path class="cls-1" d="M469.29,154.15c-1.55,12.73-9.97,20.12-19.68,26.93.65.81,1.14,1.63,1.81,2.24,18.9,17.05,20.46,43.75,11.39,64.18-10.08,22.71-30.57,34.79-56.01,33.15-23.03-1.49-43.5-17.61-50.02-39.98-1.45-4.97-2-10.46-1.69-15.64.7-11.91,7.35-19.44,19.6-23.05-.57,3.8-1.15,7.13-1.54,10.49-1.75,15.05,8.25,30.25,23.09,35.17,13.93,4.62,29.17-1.83,36.59-15.48,7.3-13.44,4.35-31.46-7.06-40.78-3.45-2.82-7.71-4.64-12.07-7.2,8.88-10.56,19.56-18.5,33.47-20.92,8.12-1.41,15.7-3.45,22.13-9.1Z"/>
        <path class="cls-1" d="M152,184.71c10.62,1.55,20.58,2.99,31.08,4.52-1.38,1.55-2.85,3.07-4.18,4.72-8.92,11.03-11.01,23.26-4.94,36.11,5.62,11.9,15.27,18.69,28.76,18.75,15.03.07,28.68-13.41,30.09-29.67.47-5.46.08-10.99.08-16.47,8.62.39,18,8.98,19.38,19.71.72,5.61.42,11.71-1,17.18-6.73,25.88-30.37,42.38-58.12,41.17-26.3-1.14-48.09-20.15-52.82-46.09-3.33-18.24.99-36.7,11.68-49.93Z"/>
        <path class="cls-1" d="M186.17,80.4c68.82-46.31,163.64-48.5,237.17-.27-5.07.67-9.15,1.07-13.18,1.76-6.47,1.11-12.94,2.25-19.33,3.72-3.16.73-5.74.38-8.63-1.16-30.93-16.59-64.17-20.39-98.54-17.15-20.83,1.96-40.68,7.46-59.04,17.8-1.39.79-3.39,1.01-5.01.8-10.5-1.4-20.98-2.98-31.46-4.54-.65-.1-1.24-.58-1.99-.95Z"/>
      </g>
      <g>
        <path class="cls-1" d="M303.9,642c-81.19,0-157.51-33.4-214.91-94.04C31.6,487.33,0,406.73,0,321S30.22,158.36,85.08,98.24l1.48,1.35C32.03,159.34,2,237.97,2,321s31.41,165.33,88.44,225.59c57.02,60.24,132.83,93.41,213.46,93.41s156.44-33.17,213.46-93.41c57.03-60.25,88.44-140.37,88.44-225.59,0-78.11-26.99-153.27-76.01-211.64l1.53-1.29c49.32,58.73,76.48,134.35,76.48,212.93,0,85.73-31.6,166.33-88.99,226.96-57.4,60.64-133.72,94.04-214.91,94.04Z"/>
        <path class="cls-1" d="M98.25,87.46l-1.4-1.43C153.25,30.55,226.78,0,303.9,0s144.84,28.24,200.23,79.52l-1.36,1.47C447.76,30.05,377.13,2,303.9,2s-149.63,30.35-205.65,85.46Z"/>
      </g>
    </g>
  </g>
</svg>