<?xml version="1.0" encoding="UTF-8"?>
<svg id="Camada_2" data-name="Camada 2" xmlns="http://www.w3.org/2000/svg" xmlns:xlink="http://www.w3.org/1999/xlink" viewBox="0 0 651.33 222">
  <defs>
    <style>
      .cls-1 {
        filter: url(#outer-glow-1);
      }

      .cls-2 {
        font-family: LoosCompressed-Bold, 'Loos Compressed';
        font-size: 139.25px;
        font-weight: 700;
      }

      .cls-2, .cls-3, .cls-4 {
        fill: #152340;
      }

      .cls-5 {
        fill: none;
        stroke: #152340;
        stroke-miterlimit: 10;
        stroke-width: 2px;
      }

      .cls-6 {
        letter-spacing: .1em;
      }

      .cls-7 {
        letter-spacing: .1em;
      }

      .cls-8 {
        letter-spacing: .1em;
      }

      .cls-9 {
        letter-spacing: .1em;
      }

      .cls-4 {
        font-family: LoosCompressed-Regular, 'Loos Compressed';
        font-size: 88px;
      }
    </style>
    <filter id="outer-glow-1" x="-9.99" y="-9.18" width="671" height="241" filterUnits="userSpaceOnUse">
      <feOffset dx="0" dy="0"/>
      <feGaussianBlur result="blur" stdDeviation="3"/>
      <feFlood flood-color="#fff" flood-opacity=".2"/>
      <feComposite in2="blur" operator="in"/>
      <feComposite in="SourceGraphic"/>
    </filter>
  </defs>
  <g id="text">
    <g class="cls-1">
      <g>
        <g>
          <path class="cls-3" d="M175.28,124.12c-6.23,5.25-13.26,8.86-21.26,10.72-.11.5-.3.99-.31,1.48-.46,19.28-7.61,36.02-19.59,50.82-2.94,3.63-6.31,6.95-9.8,10.06-4.13,3.69-9.04,6.11-14.5,7.34-4.29.97-8.45.58-12.55-.92-4.8-1.76-9.09-4.41-12.76-7.92-14.26-13.69-23.67-30.08-27.1-49.67-.46-2.64-.48-5.36-.66-8.05-.06-.94-.01-1.88-.01-2.97-8.29-1.68-15.27-5.57-21.94-11.07.05,5.13.4,9.75,1.28,14.32,2.43,12.6,7.45,24.2,13.76,35.28,3.91,6.87,8.36,13.36,14.03,19.34-27.37-16.41-43.61-59.41-36.49-88.55,8.95,13.64,20.93,22.34,37.39,24.32.07,1.11.17,2.03.17,2.96-.11,21.25,8.04,39.37,21.1,55.61,2.57,3.19,5.56,5.99,9.08,8.15,7.1,4.37,14.14,4.19,21.06-.39,4.1-2.72,7.46-6.25,10.42-10.14,9.65-12.7,15.88-26.87,18.01-42.73.43-3.18.45-6.41.62-9.62.06-1.12,0-2.24,0-3.71,16.61-1.85,28.82-10.43,37.66-24.6,1.16,2.7,1.32,5.2,1.46,7.64,1.47,26.32-6.41,49.49-23.64,69.44-3.76,4.36-8.29,7.89-13.27,10.98,1.9-2.34,3.89-4.62,5.68-7.05,1.85-2.52,3.59-5.13,5.22-7.79,1.64-2.66,3.15-5.4,4.59-8.18,1.48-2.85,2.9-5.74,4.2-8.68,1.26-2.86,2.44-5.76,3.47-8.71,1.03-2.95,1.97-5.94,2.7-8.98.73-3.03,1.29-6.12,1.69-9.22.4-3.05.51-6.15.75-9.22-.16-.09-.31-.18-.47-.27Z"/>
          <path class="cls-3" d="M169.63,49.9c8.44,8.86,12.64,19.35,11.98,31.64-.48,8.93-3.54,16.98-9.2,23.92-13.46,16.47-38.77,18.53-54.8,4.55-.19-.17-.4-.32-.8-.64-.29.78-.55,1.46-.79,2.15-1.84,5.35-3.79,10.64-7.62,14.99-2.75,3.12-3.28,3.14-5.99,0-2.99-3.47-5.04-7.48-6.56-11.77-.58-1.63-1.08-3.28-1.71-5.19-10.92,8.79-23.05,11.92-36.6,8.37-9.86-2.59-17.42-8.39-22.83-17.01-9.88-15.75-7.32-40.42,5.08-49.55,1.58,2.15,3.16,4.31,4.86,6.64-.23.4-.56.99-.91,1.56-6.11,10.04-7.18,20.63-2.58,31.42,4.68,10.97,13.42,17.02,25.27,17.64,11.78.62,20.71-4.77,26.78-14.86.65-1.08,1.22-2.22,2.13-3.9,2.21,6.44,5.8,11.37,9.97,16.37,4.53-4.7,7.55-10.06,9.92-16.55.73,1.33,1.15,2.11,1.58,2.89,4.31,7.85,10.62,13.26,19.41,15.38,14.51,3.5,29.74-5.45,34.12-20.01,2.62-8.7,1.97-17.15-2.31-25.26-.32-.61-.43-1.46-.32-2.15.57-3.49,1.24-6.96,1.92-10.64Z"/>
          <path class="cls-3" d="M105.47,67.15c.21-.26.46-.51.65-.8,9.55-14.99,23.29-23.95,40.37-28.24,4.71-1.18,9.37-2.6,13.93-4.26,2.75-1,5.33-2.53,7.84-4.05,4.69-2.83,7.99-6.89,9.91-12.04.15-.41.3-.81.48-1.21.45-1,.58-2.37,1.99-2.46,1.62-.11,2.17,1.28,2.67,2.46,1.52,3.61,1.69,7.44,1.53,11.27-.3,7.12-1.93,13.91-5.18,20.29-.19.38-.45.73-.82,1.35-1.75-1.53-3.41-2.99-5.2-4.56,3.85-6.58,6.68-13.49,7.78-21.61-.45.55-.59.66-.65.81-2.75,6.83-7.8,11.58-13.9,15.39-5.19,3.24-10.95,5.23-16.57,7.53-4.73,1.94-9.5,3.87-14.04,6.22-14.34,7.41-23.37,19.32-28.46,34.43-.39,1.15-.68,2.34-1.11,3.47-.26.69-.69,1.31-1.34,2.5-.74-1.36-1.3-2.19-1.66-3.09-1.26-3.14-2.34-6.36-3.68-9.46-6.14-14.24-16.43-24.34-30.71-30.32-4.96-2.08-10.06-3.83-15.02-5.91-3.51-1.48-7.01-3.07-10.3-4.98-6.8-3.96-10.74-8.24-14.6-15.16-.48,3.43,2.34,11.5,7.09,20.12-.81.76-1.7,1.54-2.53,2.38-.79.8-1.52,1.65-2.54,2.78-.82-1.68-1.49-2.95-2.07-4.27-3.49-7.9-4.8-16.13-3.41-24.67.33-2.01,1.08-4.03,2.05-5.83.97-1.8,2.37-1.59,3.23.25.37.78.64,1.61.93,2.43,1.62,4.58,4.54,8.15,8.46,10.96,5.9,4.22,12.62,6.5,19.56,8.24,5.64,1.42,11.31,2.72,16.66,5.11,11.5,5.13,20.75,12.86,27.47,23.56.23.37.46.73.73,1.07.09.12.29.17.48.28Z"/>
          <path class="cls-3" d="M161.97,53.64c-.53,4.37-3.43,6.92-6.77,9.26.22.28.39.56.62.77,6.5,5.86,7.03,15.04,3.91,22.06-3.47,7.81-10.51,11.96-19.25,11.4-7.91-.51-14.95-6.05-17.2-13.74-.5-1.71-.69-3.6-.58-5.38.24-4.09,2.53-6.68,6.74-7.92-.19,1.31-.4,2.45-.53,3.6-.6,5.17,2.84,10.4,7.94,12.09,4.79,1.59,10.03-.63,12.58-5.32,2.51-4.62,1.5-10.81-2.43-14.02-1.19-.97-2.65-1.6-4.15-2.48,3.05-3.63,6.73-6.36,11.51-7.19,2.79-.49,5.4-1.19,7.61-3.13Z"/>
          <path class="cls-3" d="M52.91,64.15c3.65.53,7.07,1.03,10.68,1.55-.47.53-.98,1.06-1.44,1.62-3.07,3.79-3.79,7.99-1.7,12.41,1.93,4.09,5.25,6.42,9.89,6.44,5.17.02,9.86-4.61,10.34-10.2.16-1.88.03-3.78.03-5.66,2.96.13,6.19,3.09,6.66,6.77.25,1.93.15,4.03-.34,5.91-2.31,8.9-10.44,14.57-19.98,14.15-9.04-.39-16.53-6.93-18.16-15.84-1.14-6.27.34-12.62,4.02-17.16Z"/>
          <path class="cls-3" d="M64.65,28.29c23.66-15.92,56.25-16.67,81.53-.09-1.74.23-3.14.37-4.53.61-2.22.38-4.45.77-6.64,1.28-1.09.25-1.97.13-2.97-.4-10.63-5.7-22.06-7.01-33.87-5.9-7.16.67-13.98,2.56-20.3,6.12-.48.27-1.17.35-1.72.27-3.61-.48-7.21-1.02-10.81-1.56-.22-.03-.43-.2-.68-.33Z"/>
        </g>
        <g>
          <path class="cls-5" d="M183.04,38.03c16.31,19.42,26.21,44.97,26.21,72.97,0,60.75-46.62,110-104.12,110S1,171.75,1,111c0-29.65,11.1-56.56,29.16-76.34"/>
          <path class="cls-5" d="M34.19,30.48C52.78,12.19,77.71,1,105.12,1s50.28,10.28,68.6,27.24"/>
        </g>
      </g>
      <g>
        <text class="cls-2" transform="translate(228.02 120.02)"><tspan class="cls-9" x="0" y="0">Z</tspan><tspan class="cls-7" x="78.12" y="0">APPE</tspan></text>
        <g>
          <rect class="cls-3" x="253.88" y="168.2" width="93.62" height="3.74"/>
          <rect class="cls-3" x="263.24" y="160.81" width="74.89" height="3.74"/>
          <rect class="cls-3" x="265.58" y="175.58" width="70.21" height="3.74"/>
        </g>
        <g>
          <rect class="cls-3" x="524.69" y="168.2" width="93.62" height="3.74"/>
          <rect class="cls-3" x="534.05" y="160.81" width="74.89" height="3.74"/>
          <rect class="cls-3" x="536.39" y="175.58" width="70.21" height="3.74"/>
        </g>
        <text class="cls-4" transform="translate(357.79 195.37)"><tspan class="cls-8" x="0" y="0">O</tspan><tspan class="cls-6" x="55" y="0">WL</tspan></text>
      </g>
    </g>
  </g>
</svg>