<?xml version="1.0" encoding="UTF-8"?>
<svg id="Camada_2" data-name="Camada 2" xmlns="http://www.w3.org/2000/svg" viewBox="0 0 484.73 512">
  <defs>
    <style>
      .cls-1 {
        fill: #fff;
      }
    </style>
  </defs>
  <g id="text">
    <g>
      <g>
        <path class="cls-1" d="M405.12,286.45c-14.44,12.18-30.77,20.54-49.33,24.86-.26,1.17-.7,2.29-.73,3.43-1.07,44.74-17.65,83.57-45.45,117.91-6.81,8.41-14.64,16.12-22.73,23.34-9.59,8.56-20.97,14.17-33.63,17.03-9.96,2.25-19.62,1.34-29.12-2.14-11.14-4.08-21.09-10.22-29.6-18.38-33.09-31.76-54.9-69.78-62.88-115.24-1.07-6.13-1.11-12.44-1.54-18.67-.15-2.17-.02-4.36-.02-6.9-19.24-3.9-35.43-12.93-50.9-25.69.13,11.91.93,22.62,2.98,33.22,5.65,29.23,17.29,56.14,31.93,81.85,9.07,15.93,19.4,30.99,32.54,44.86-63.51-38.08-101.17-137.83-84.66-205.45,20.77,31.64,48.57,51.83,86.74,56.41.15,2.57.4,4.72.39,6.86-.26,49.3,18.65,91.35,48.96,129.01,5.95,7.4,12.91,13.89,21.07,18.91,16.46,10.14,32.81,9.73,48.85-.91,9.52-6.3,17.31-14.5,24.17-23.53,22.4-29.45,36.85-62.33,41.78-99.13.99-7.37,1.04-14.87,1.44-22.32.14-2.6.02-5.2.02-8.61,38.53-4.29,66.86-24.19,87.38-57.08,2.7,6.26,3.06,12.07,3.38,17.73,3.42,61.06-14.86,114.82-54.85,161.1-8.73,10.11-19.23,18.31-30.78,25.47,4.41-5.44,9.03-10.73,13.18-16.36,4.3-5.84,8.32-11.89,12.12-18.07,3.79-6.18,7.31-12.54,10.66-18.97,3.44-6.61,6.72-13.32,9.73-20.13,2.93-6.63,5.66-13.37,8.05-20.21,2.39-6.84,4.56-13.79,6.26-20.83,1.7-7.04,2.99-14.21,3.93-21.39.93-7.09,1.19-14.26,1.74-21.4-.36-.21-.72-.43-1.08-.64Z"/>
        <path class="cls-1" d="M392.01,114.26c19.58,20.55,29.32,44.9,27.78,73.4-1.12,20.71-8.2,39.4-21.35,55.49-31.22,38.21-89.94,43-127.14,10.56-.45-.39-.93-.75-1.86-1.49-.67,1.8-1.29,3.38-1.84,4.99-4.27,12.42-8.8,24.69-17.68,34.77-6.38,7.24-7.62,7.3-13.89,0-6.93-8.06-11.69-17.34-15.21-27.3-1.34-3.78-2.51-7.62-3.96-12.03-25.34,20.39-53.49,27.65-84.9,19.41-22.88-6-40.42-19.47-52.96-39.46-22.92-36.54-16.98-93.77,11.79-114.95,3.66,5,7.32,10,11.28,15.4-.53.92-1.29,2.29-2.11,3.62-14.19,23.3-16.67,47.87-5.99,72.89,10.86,25.45,31.14,39.48,58.63,40.92,27.34,1.43,48.04-11.07,62.14-34.47,1.51-2.51,2.82-5.15,4.94-9.05,5.14,14.94,13.46,26.38,23.12,37.99,10.51-10.9,17.5-23.34,23.02-38.41,1.69,3.08,2.68,4.9,3.67,6.71,10,18.21,24.63,30.77,45.03,35.69,33.67,8.11,68.99-12.64,79.15-46.42,6.07-20.18,4.57-39.79-5.36-58.61-.75-1.41-1.01-3.39-.75-4.98,1.32-8.09,2.88-16.14,4.45-24.67Z"/>
        <path class="cls-1" d="M243.17,154.27c.5-.61,1.07-1.18,1.5-1.85,22.16-34.78,54.04-55.57,93.65-65.51,10.92-2.74,21.74-6.04,32.31-9.88,6.37-2.31,12.36-5.88,18.2-9.4,10.88-6.57,18.54-15.98,23-27.93.35-.94.71-1.89,1.12-2.81,1.03-2.32,1.35-5.5,4.61-5.72,3.77-.26,5.04,2.97,6.19,5.7,3.52,8.37,3.92,17.25,3.54,26.15-.69,16.51-4.48,32.28-12.02,47.06-.45.89-1.04,1.7-1.91,3.13-4.06-3.55-7.92-6.94-12.06-10.57,8.92-15.27,15.5-31.3,18.05-50.13-1.03,1.27-1.37,1.54-1.51,1.88-6.39,15.84-18.1,26.87-32.24,35.71-12.04,7.53-25.4,12.13-38.44,17.48-10.98,4.51-22.04,8.98-32.57,14.42-33.28,17.19-54.22,44.82-66.03,79.87-.9,2.67-1.58,5.42-2.57,8.06-.6,1.59-1.6,3.03-3.11,5.8-1.72-3.16-3.01-5.07-3.84-7.16-2.92-7.29-5.43-14.75-8.54-21.96-14.25-33.04-38.11-56.46-71.25-70.34-11.51-4.82-23.35-8.88-34.85-13.72-8.14-3.43-16.27-7.11-23.89-11.56-15.77-9.2-24.91-19.12-33.88-35.16-1.11,7.96,5.43,26.68,16.44,46.69-1.88,1.76-3.94,3.58-5.87,5.53-1.83,1.85-3.52,3.83-5.9,6.44-1.89-3.89-3.45-6.85-4.79-9.9-8.1-18.32-11.13-37.42-7.91-57.25.76-4.66,2.51-9.35,4.76-13.52,2.24-4.17,5.5-3.68,7.49.59.85,1.82,1.48,3.74,2.15,5.64,3.75,10.63,10.54,18.91,19.63,25.42,13.69,9.79,29.28,15.07,45.38,19.13,13.08,3.3,26.23,6.31,38.64,11.85,26.68,11.9,48.13,29.84,63.72,54.65.53.85,1.07,1.7,1.68,2.49.22.29.66.4,1.11.66Z"/>
        <path class="cls-1" d="M374.26,122.93c-1.23,10.15-7.95,16.04-15.7,21.47.52.65.91,1.3,1.45,1.79,15.07,13.6,16.32,34.89,9.08,51.19-8.04,18.11-24.38,27.75-44.67,26.44-18.36-1.19-34.69-14.04-39.89-31.89-1.16-3.96-1.59-8.34-1.35-12.47.56-9.5,5.86-15.51,15.63-18.38-.45,3.03-.92,5.69-1.23,8.36-1.4,12,6.58,24.13,18.42,28.05,11.11,3.69,23.27-1.46,29.18-12.35,5.82-10.72,3.47-25.09-5.63-32.52-2.75-2.25-6.15-3.7-9.63-5.74,7.09-8.42,15.6-14.75,26.69-16.69,6.47-1.13,12.52-2.75,17.65-7.26Z"/>
        <path class="cls-1" d="M121.22,147.31c8.47,1.23,16.41,2.39,24.79,3.61-1.1,1.23-2.27,2.45-3.33,3.76-7.11,8.8-8.78,18.55-3.94,28.8,4.48,9.49,12.18,14.9,22.94,14.95,11.99.05,22.87-10.69,24-23.66.38-4.35.06-8.76.06-13.13,6.87.31,14.35,7.17,15.46,15.72.58,4.47.34,9.34-.8,13.7-5.36,20.64-24.22,33.79-46.35,32.84-20.98-.91-38.35-16.07-42.13-36.76-2.66-14.55.79-29.27,9.32-39.82Z"/>
        <path class="cls-1" d="M148.47,64.12c54.88-36.94,130.5-38.68,189.15-.21-4.04.53-7.3.85-10.51,1.41-5.16.89-10.32,1.79-15.41,2.97-2.52.58-4.58.31-6.88-.93-24.67-13.23-51.18-16.26-78.58-13.68-16.61,1.56-32.44,5.95-47.09,14.2-1.11.63-2.7.81-4,.64-8.38-1.11-16.73-2.37-25.09-3.62-.52-.08-.99-.46-1.59-.76Z"/>
      </g>
      <g>
        <path class="cls-1" d="M242.36,512c-64.75,0-125.61-26.63-171.39-75C25.2,388.65,0,324.37,0,256S24.1,126.29,67.86,78.35l1.18,1.07C25.55,127.07,1.6,189.78,1.6,256s25.05,131.85,70.53,179.91c45.47,48.04,105.93,74.5,170.23,74.5s124.76-26.46,170.23-74.5c45.48-48.05,70.53-111.95,70.53-179.91,0-62.29-21.53-122.24-60.62-168.79l1.22-1.03c39.33,46.83,60.99,107.14,60.99,169.81,0,68.37-25.2,132.65-70.97,181-45.78,48.36-106.65,75-171.39,75Z"/>
        <path class="cls-1" d="M78.35,69.75l-1.12-1.14C122.22,24.37,180.86,0,242.36,0s115.51,22.52,159.69,63.42l-1.08,1.17C357.09,23.97,300.76,1.6,242.36,1.6S123.03,25.8,78.35,69.75Z"/>
      </g>
    </g>
  </g>
</svg>