<?xml version="1.0" encoding="UTF-8"?>
<svg id="Camada_2" data-name="Camada 2" xmlns="http://www.w3.org/2000/svg" viewBox="0 0 484.69 512.05">
  <defs>
    <style>
      .cls-1 {
        fill: #152340;
        stroke-width: .05px;
      }

      .cls-1, .cls-2 {
        stroke: #152340;
        stroke-miterlimit: 10;
      }

      .cls-2, .cls-3 {
        fill: #fff;
      }
    </style>
  </defs>
  <g id="text">
    <g>
      <path class="cls-1" d="M423.67,86.2c37.95,45.19,60.99,104.66,60.99,169.83,0,141.38-108.49,256-242.32,256S.02,397.41.02,256.02C.02,187.02,25.87,124.4,67.88,78.36l9.38-9.74C120.53,26.06,178.56.02,242.35.02s117,23.93,159.64,63.4l21.69,22.77Z"/>
      <g>
        <path class="cls-3" d="M405.61,286.57c-14.49,12.22-30.87,20.61-49.49,24.94-.26,1.17-.7,2.3-.73,3.44-1.07,44.88-17.7,83.83-45.59,118.28-6.83,8.44-14.69,16.17-22.8,23.41-9.62,8.58-21.03,14.22-33.74,17.09-9.99,2.26-19.68,1.34-29.21-2.15-11.17-4.09-21.16-10.25-29.69-18.44-33.2-31.85-55.08-70-63.08-115.6-1.08-6.14-1.12-12.48-1.55-18.73-.15-2.18-.02-4.38-.02-6.92-19.3-3.91-35.54-12.97-51.06-25.77.13,11.95.93,22.69,2.99,33.33,5.66,29.32,17.34,56.31,32.03,82.11,9.1,15.98,19.46,31.08,32.64,45-63.71-38.2-101.49-138.26-84.93-206.09,20.83,31.73,48.72,51.99,87.01,56.59.15,2.58.4,4.73.39,6.88-.27,49.45,18.71,91.63,49.11,129.41,5.97,7.42,12.95,13.93,21.13,18.97,16.52,10.17,32.91,9.76,49.01-.91,9.55-6.32,17.36-14.55,24.24-23.6,22.47-29.55,36.96-62.52,41.91-99.44.99-7.4,1.05-14.92,1.45-22.39.14-2.6.02-5.22.02-8.63,38.65-4.3,67.07-24.26,87.66-57.26,2.7,6.28,3.07,12.1,3.39,17.79,3.43,61.25-14.91,115.18-55.02,161.6-8.76,10.14-19.29,18.37-30.88,25.55,4.43-5.46,9.06-10.76,13.22-16.41,4.31-5.85,8.35-11.93,12.15-18.12,3.81-6.2,7.33-12.58,10.69-19.03,3.45-6.63,6.74-13.36,9.76-20.19,2.94-6.65,5.68-13.41,8.07-20.27,2.4-6.86,4.57-13.83,6.28-20.89,1.71-7.06,3-14.25,3.94-21.45.93-7.11,1.19-14.31,1.75-21.46-.36-.21-.72-.43-1.08-.64Z"/>
        <path class="cls-3" d="M392.46,113.84c19.64,20.61,29.42,45.04,27.87,73.63-1.12,20.78-8.23,39.53-21.42,55.66-31.32,38.33-90.22,43.13-127.54,10.59-.45-.39-.94-.75-1.86-1.49-.67,1.81-1.29,3.39-1.84,5-4.28,12.46-8.83,24.76-17.74,34.88-6.4,7.27-7.64,7.32-13.93,0-6.95-8.09-11.72-17.4-15.26-27.38-1.34-3.79-2.52-7.64-3.98-12.07-25.42,20.45-53.65,27.74-85.17,19.47-22.95-6.02-40.55-19.53-53.13-39.58-22.99-36.66-17.04-94.06,11.82-115.31,3.67,5.01,7.34,10.03,11.32,15.45-.54.92-1.3,2.29-2.11,3.63-14.23,23.37-16.72,48.02-6.01,73.11,10.9,25.53,31.24,39.61,58.81,41.05,27.42,1.43,48.19-11.11,62.33-34.58,1.52-2.52,2.83-5.17,4.96-9.08,5.15,14.99,13.5,26.46,23.2,38.11,10.55-10.94,17.56-23.41,23.09-38.53,1.69,3.09,2.68,4.91,3.68,6.73,10.03,18.27,24.71,30.87,45.17,35.8,33.78,8.14,69.21-12.68,79.4-46.56,6.09-20.24,4.58-39.92-5.37-58.79-.75-1.42-1.01-3.4-.75-5,1.32-8.12,2.89-16.2,4.46-24.75Z"/>
        <path class="cls-2" d="M243.16,153.99c.5-.62,1.07-1.18,1.5-1.85,22.23-34.9,54.21-55.75,93.94-65.72,10.95-2.75,21.81-6.07,32.42-9.92,6.39-2.32,12.4-5.9,18.25-9.43,10.91-6.6,18.6-16.03,23.07-28.02.35-.95.71-1.9,1.12-2.82,1.04-2.33,1.36-5.52,4.62-5.73,3.78-.25,5.06,2.98,6.21,5.72,3.52,8.4,3.92,17.32,3.55,26.23-.69,16.57-4.49,32.38-12.05,47.22-.45.88-1.04,1.7-1.92,3.13-4.07-3.57-7.95-6.97-12.1-10.6,8.95-15.33,15.55-31.42,18.1-50.3-1.04,1.28-1.38,1.55-1.52,1.9-6.4,15.88-18.15,26.95-32.34,35.82-12.08,7.55-25.48,12.17-38.56,17.53-11.02,4.52-22.1,9.02-32.67,14.47-33.38,17.23-54.39,44.97-66.24,80.12-.9,2.68-1.58,5.45-2.58,8.08-.6,1.6-1.6,3.05-3.12,5.82-1.72-3.17-3.02-5.08-3.86-7.17-2.92-7.32-5.45-14.8-8.56-22.03-14.29-33.13-38.23-56.63-71.47-70.57-11.55-4.83-23.43-8.9-34.96-13.77-8.17-3.43-16.32-7.13-23.96-11.58-15.82-9.23-24.99-19.18-33.99-35.28-1.12,7.98,5.45,26.77,16.5,46.83-1.88,1.77-3.95,3.6-5.89,5.55-1.83,1.85-3.53,3.85-5.92,6.47-1.9-3.9-3.45-6.87-4.81-9.92-8.12-18.38-11.16-37.55-7.94-57.43.76-4.67,2.52-9.38,4.77-13.57,2.25-4.17,5.52-3.68,7.51.6.85,1.83,1.49,3.75,2.16,5.67,3.76,10.67,10.57,18.97,19.69,25.48,13.73,9.83,29.38,15.13,45.52,19.2,13.13,3.3,26.31,6.33,38.76,11.88,26.77,11.93,48.28,29.93,63.92,54.82.53.85,1.08,1.7,1.69,2.5.22.28.66.4,1.12.67Z"/>
        <path class="cls-3" d="M374.66,122.54c-1.24,10.18-7.97,16.09-15.75,21.54.52.65.91,1.31,1.45,1.79,15.12,13.64,16.37,35,9.11,51.35-8.07,18.16-24.46,27.83-44.8,26.52-18.42-1.19-34.8-14.09-40.02-31.99-1.16-3.98-1.6-8.37-1.35-12.51.56-9.53,5.88-15.55,15.68-18.44-.45,3.04-.92,5.71-1.23,8.39-1.4,12.04,6.6,24.2,18.47,28.14,11.15,3.7,23.34-1.46,29.27-12.39,5.84-10.75,3.48-25.17-5.65-32.62-2.76-2.26-6.17-3.72-9.66-5.76,7.11-8.45,15.65-14.8,26.78-16.74,6.49-1.13,12.56-2.76,17.7-7.28Z"/>
        <path class="cls-3" d="M120.82,147c8.5,1.24,16.46,2.39,24.86,3.62-1.1,1.24-2.28,2.46-3.34,3.77-7.13,8.83-8.81,18.6-3.95,28.89,4.49,9.52,12.22,14.95,23.01,15,12.02.05,22.94-10.73,24.07-23.74.38-4.36.06-8.79.06-13.17,6.9.31,14.4,7.19,15.5,15.77.58,4.49.34,9.37-.8,13.74-5.38,20.7-24.29,33.9-46.5,32.94-21.04-.91-38.47-16.12-42.26-36.87-2.66-14.59.8-29.36,9.35-39.95Z"/>
        <path class="cls-3" d="M148.16,63.55c55.05-37.05,130.91-38.8,189.74-.21-4.06.53-7.32.86-10.54,1.41-5.17.89-10.35,1.8-15.46,2.98-2.53.58-4.59.31-6.9-.93-24.74-13.27-51.34-16.31-78.83-13.72-16.66,1.57-32.54,5.96-47.23,14.24-1.12.63-2.71.81-4.01.64-8.4-1.12-16.79-2.38-25.17-3.63-.52-.08-.99-.47-1.59-.76Z"/>
      </g>
    </g>
  </g>
</svg>