<?xml version="1.0" encoding="UTF-8"?>
<svg id="Camada_2" data-name="Camada 2" xmlns="http://www.w3.org/2000/svg" viewBox="0 0 1022.47 1080">
  <defs>
    <style>
      .cls-1 {
        fill: #152340;
      }
    </style>
  </defs>
  <g id="text">
    <g>
      <g>
        <path class="cls-1" d="M854.55,604.23c-30.47,25.69-64.91,43.34-104.06,52.45-.54,2.46-1.48,4.84-1.53,7.24-2.25,94.36-37.23,176.28-95.87,248.73-14.36,17.74-30.88,34.01-47.94,49.23-20.22,18.05-44.22,29.89-70.94,35.93-21.01,4.74-41.38,2.82-61.42-4.52-23.5-8.6-44.48-21.56-62.43-38.78-69.81-66.98-115.81-147.19-132.63-243.09-2.27-12.92-2.35-26.23-3.25-39.38-.31-4.58-.05-9.2-.05-14.55-40.58-8.23-74.74-27.27-107.38-54.18.26,25.12,1.96,47.72,6.28,70.08,11.91,61.65,36.47,118.41,67.35,172.66,19.13,33.61,40.92,65.37,68.64,94.63-133.96-80.32-213.41-290.73-178.59-433.37,43.8,66.73,102.44,109.33,182.96,119,.32,5.43.85,9.95.82,14.46-.56,103.99,39.34,192.69,103.28,272.12,12.56,15.6,27.22,29.3,44.44,39.9,34.73,21.38,69.2,20.51,103.05-1.91,20.07-13.3,36.5-30.59,50.98-49.62,47.25-62.13,77.73-131.47,88.13-209.1,2.08-15.55,2.2-31.37,3.04-47.08.29-5.47.05-10.98.05-18.15,81.27-9.05,141.03-51.02,184.32-120.4,5.69,13.2,6.46,25.45,7.13,37.4,7.21,128.8-31.35,242.2-115.69,339.82-18.42,21.32-40.56,38.63-64.93,53.74,9.31-11.47,19.05-22.63,27.8-34.51,9.06-12.31,17.56-25.08,25.56-38.11,8-13.03,15.42-26.45,22.48-40.01,7.26-13.94,14.18-28.09,20.53-42.46,6.18-13.98,11.93-28.2,16.98-42.62,5.04-14.43,9.62-29.09,13.21-43.93,3.59-14.84,6.31-29.96,8.29-45.11,1.96-14.95,2.51-30.08,3.67-45.14-.76-.45-1.52-.9-2.28-1.35Z"/>
        <path class="cls-1" d="M826.9,241.01c41.29,43.34,61.86,94.72,58.61,154.82-2.36,43.69-17.3,83.11-45.04,117.05-65.86,80.59-189.72,90.69-268.19,22.28-.95-.83-1.97-1.58-3.92-3.14-1.41,3.8-2.71,7.14-3.88,10.52-9.01,26.19-18.56,52.07-37.3,73.35-13.46,15.28-16.07,15.39-29.29,0-14.61-17-24.65-36.58-32.09-57.58-2.83-7.97-5.31-16.07-8.36-25.38-53.45,43-112.82,58.33-179.1,40.95-48.26-12.66-85.27-41.06-111.72-83.23-48.35-77.09-35.82-197.79,24.86-242.47,7.72,10.54,15.44,21.08,23.8,32.49-1.13,1.94-2.73,4.82-4.44,7.64-29.92,49.14-35.15,100.98-12.63,153.75,22.92,53.68,65.68,83.29,123.66,86.32,57.66,3.02,101.33-23.36,131.07-72.72,3.2-5.3,5.95-10.87,10.42-19.09,10.84,31.51,28.39,55.65,48.77,80.13,22.18-23,36.92-49.23,48.56-81.01,3.56,6.5,5.64,10.33,7.74,14.15,21.1,38.42,51.96,64.91,94.98,75.28,71.02,17.11,145.54-26.66,166.96-97.91,12.8-42.57,9.64-83.94-11.3-123.63-1.57-2.98-2.12-7.15-1.57-10.5,2.78-17.07,6.08-34.06,9.38-52.05Z"/>
        <path class="cls-1" d="M512.94,325.42c1.05-1.28,2.26-2.49,3.16-3.9,46.75-73.37,113.99-117.22,197.54-138.18,23.03-5.78,45.86-12.74,68.16-20.84,13.43-4.88,26.06-12.39,38.38-19.84,22.94-13.86,39.11-33.7,48.51-58.91.74-1.99,1.49-3.98,2.35-5.92,2.18-4.9,2.85-11.59,9.72-12.06,7.95-.54,10.64,6.26,13.06,12.03,7.41,17.66,8.26,36.39,7.48,55.15-1.46,34.83-9.44,68.09-25.34,99.28-.95,1.87-2.18,3.59-4.03,6.6-8.56-7.5-16.71-14.64-25.44-22.3,18.82-32.22,32.7-66.03,38.07-105.75-2.18,2.69-2.9,3.25-3.19,3.98-13.47,33.42-38.17,56.68-68.01,75.32-25.41,15.88-53.59,25.59-81.09,36.87-23.17,9.5-46.48,18.94-68.7,30.42-70.2,36.26-114.36,94.55-139.28,168.48-1.9,5.63-3.32,11.44-5.41,16.99-1.26,3.36-3.38,6.39-6.57,12.24-3.63-6.67-6.35-10.69-8.11-15.1-6.15-15.38-11.45-31.12-18.01-46.32-30.05-69.69-80.39-119.1-150.3-148.38-24.29-10.17-49.25-18.72-73.52-28.95-17.18-7.24-34.31-15-50.38-24.38-33.26-19.4-52.55-40.34-71.47-74.18-2.35,16.8,11.46,56.29,34.69,98.49-3.96,3.71-8.31,7.55-12.38,11.67-3.86,3.9-7.42,8.08-12.44,13.59-4-8.22-7.27-14.45-10.11-20.87-17.09-38.65-23.47-78.93-16.69-120.75,1.59-9.83,5.3-19.72,10.04-28.51,4.73-8.79,11.61-7.76,15.8,1.24,1.79,3.84,3.13,7.9,4.54,11.9,7.91,22.43,22.22,39.89,41.41,53.61,28.88,20.66,61.77,31.79,95.73,40.35,27.6,6.95,55.33,13.31,81.51,24.99,56.28,25.11,101.53,62.95,134.42,115.28,1.13,1.79,2.26,3.59,3.55,5.26.46.6,1.39.85,2.35,1.39Z"/>
        <path class="cls-1" d="M789.46,259.31c-2.6,21.41-16.77,33.84-33.11,45.3,1.09,1.36,1.91,2.75,3.05,3.77,31.8,28.69,34.42,73.59,19.15,107.97-16.96,38.2-51.43,58.53-94.22,55.77-38.73-2.5-73.17-29.63-84.15-67.26-2.44-8.36-3.36-17.6-2.85-26.31,1.19-20.03,12.36-32.71,32.97-38.78-.95,6.39-1.94,12-2.6,17.64-2.95,25.32,13.88,50.89,38.85,59.17,23.44,7.77,49.08-3.07,61.55-26.05,12.28-22.61,7.33-52.92-11.87-68.6-5.8-4.74-12.97-7.81-20.31-12.12,14.95-17.76,32.91-31.12,56.31-35.2,13.66-2.38,26.4-5.8,37.22-15.31Z"/>
        <path class="cls-1" d="M255.7,310.73c17.87,2.6,34.62,5.04,52.28,7.61-2.31,2.6-4.79,5.17-7.03,7.94-15,18.56-18.52,39.12-8.32,60.75,9.45,20.01,25.7,31.44,48.38,31.54,25.28.11,48.24-22.55,50.62-49.91.8-9.18.13-18.48.13-27.7,14.5.66,30.27,15.11,32.6,33.15,1.22,9.44.71,19.7-1.68,28.9-11.31,43.53-51.08,71.29-97.78,69.27-44.25-1.91-80.9-33.89-88.86-77.54-5.6-30.69,1.67-61.74,19.65-84Z"/>
        <path class="cls-1" d="M313.18,135.25c115.77-77.91,275.27-81.59,398.99-.45-8.53,1.12-15.39,1.8-22.17,2.97-10.88,1.87-21.76,3.79-32.51,6.26-5.32,1.22-9.65.65-14.51-1.96-52.03-27.91-107.95-34.3-165.76-28.86-35.04,3.3-68.43,12.54-99.32,29.95-2.35,1.32-5.7,1.71-8.43,1.34-17.67-2.35-35.3-5.01-52.92-7.64-1.09-.16-2.08-.98-3.35-1.6Z"/>
      </g>
      <g>
        <path class="cls-1" d="M511.23,1080c-136.57,0-264.97-56.18-361.53-158.2C53.17,819.82,0,684.22,0,540S50.83,266.4,143.13,165.27l2.49,2.27C53.88,268.05,3.36,400.32,3.36,540s52.84,278.13,148.78,379.49c95.92,101.34,223.45,157.14,359.09,157.14s263.16-55.81,359.09-157.14c95.94-101.36,148.78-236.14,148.78-379.49,0-131.4-45.41-257.84-127.86-356.03l2.58-2.16c82.96,98.79,128.65,226,128.65,358.19,0,144.22-53.17,279.82-149.7,381.8-96.56,102.02-224.96,158.2-361.53,158.2Z"/>
        <path class="cls-1" d="M165.28,147.13l-2.36-2.4C257.8,51.4,381.5,0,511.23,0s243.66,47.51,336.84,133.77l-2.29,2.47C753.24,50.55,634.42,3.36,511.23,3.36s-251.71,51.06-345.96,143.76Z"/>
      </g>
    </g>
  </g>
</svg>